<svg width="112" height="130" viewBox="0 0 112 130" fill="none" xmlns="http://www.w3.org/2000/svg">
<path d="M8.46278 7.25552V12.6561H4.59538V14.4724C6.50836 14.4448 7.93792 14.3412 9.6161 14.0373L9.83709 15.9917C7.81361 16.3715 6.05256 16.4199 3.40753 16.4199H2.18516V10.8467H6.06637V9.21685H2.15753V7.25552H8.46278ZM3.594 21.8343C7.39234 21.337 9.31223 19.4517 9.31914 17.5939V17.2693H11.8122V17.5939C11.8053 19.4517 13.7183 21.337 17.5512 21.8343L16.5981 23.7196C13.739 23.3191 11.6603 22.1312 10.5691 20.4945C9.47107 22.1312 7.38543 23.3191 4.54013 23.7196L3.594 21.8343ZM9.09124 12.0207V10.0525H10.7556V6.37845H13.1037V16.6064H10.7556V12.0207H9.09124ZM14.3744 18.1395V6.04005H16.7363V18.1395H14.3744ZM34.609 19.6243V21.6478H18.3521V19.6243H34.609ZM19.0082 15.0387C22.8963 14.4448 25.1339 12.0207 25.1339 9.52762V9.52072H19.7057V7.53867H33.1863V9.52072H27.7582V9.52762C27.7513 12.0207 29.9957 14.3619 34.0151 14.9627L33.0275 16.9378C29.9198 16.3923 27.6062 14.866 26.4667 12.7597C25.3341 14.9075 23.062 16.4959 19.9888 17.0414L19.0082 15.0387ZM55.7035 19.6796V21.6754H39.4466V19.6796H46.2491V15.6602H48.7215V19.6796H55.7035ZM39.8264 14.1478C43.8596 13.5262 46.1248 10.8191 46.1386 8.30525V7.04144H48.7974V8.30525C48.7905 10.8467 51.0764 13.5262 55.151 14.1478L54.0875 16.2265C50.959 15.6533 48.6386 13.982 47.4715 11.7652C46.2974 13.9751 43.9908 15.6671 40.89 16.2265L39.8264 14.1478ZM71.6564 6.01243V23.8025H69.2599V14.7555H67.6301V23.0083H65.3166V6.48204H67.6301V12.7528H69.2599V6.01243H71.6564ZM56.1108 18.4157C59.7296 16.3025 61.2903 13.6989 61.6218 10.2113H57.0086V8.21547H64.0528C64.0459 13.174 62.568 17.2348 57.5472 20.1423L56.1108 18.4157ZM82.378 6.97928C83.7937 6.97238 85.0368 7.49724 85.8932 8.3674H89.9194V6.01243H92.4056V16.4406H89.9194V14.3135H85.8586C85.0092 15.1699 83.7799 15.6809 82.378 15.674C79.6846 15.6809 77.6335 13.8439 77.6473 11.3301C77.6335 8.79558 79.6846 6.97238 82.378 6.97928ZM80.0092 11.3301C80.0092 12.6975 80.9898 13.5746 82.378 13.5677C83.7246 13.5746 84.6984 12.6975 84.7122 11.3301C84.6984 9.92127 83.7246 9.09945 82.378 9.11326C80.9898 9.09945 80.0092 9.92127 80.0092 11.3301ZM80.2233 20.3011C80.2164 18.0912 82.5713 16.7928 86.3282 16.7997C90.0851 16.7928 92.447 18.0912 92.4539 20.3011C92.447 22.5041 90.0851 23.8025 86.3282 23.7956C82.5713 23.8025 80.2164 22.5041 80.2233 20.3011ZM82.668 20.3011C82.6542 21.337 83.9733 21.8619 86.3282 21.855C88.7315 21.8619 90.0092 21.337 90.0161 20.3011C90.0092 19.2376 88.7315 18.7058 86.3282 18.7058C83.9733 18.7058 82.6542 19.2376 82.668 20.3011ZM86.9636 12.3246H89.9194V10.3425H86.9705C87.0396 10.6602 87.081 10.9848 87.081 11.3301C87.081 11.6754 87.0396 12.0069 86.9636 12.3246ZM100.782 8.8163C100.782 10.971 102.039 13.0428 104.85 13.9061L103.531 15.8467C101.639 15.2251 100.327 14.0097 99.5601 12.4558C98.7935 14.2445 97.4123 15.6533 95.3819 16.3439L94.0421 14.3895C97.0048 13.395 98.2755 11.0262 98.2894 8.57459V6.96547H100.782V8.8163ZM96.4938 20.3494C96.4869 18.2017 98.8349 16.924 102.578 16.9309C106.266 16.924 108.579 18.2017 108.579 20.3494C108.579 22.5387 106.266 23.8025 102.578 23.7956C98.8349 23.8025 96.4869 22.5387 96.4938 20.3494ZM98.9869 20.3494C98.98 21.3646 100.251 21.8412 102.578 21.8481C104.892 21.8412 106.121 21.3646 106.121 20.3494C106.121 19.3895 104.892 18.8715 102.578 18.8715C100.251 18.8715 98.98 19.3895 98.9869 20.3494ZM105.914 16.5649V6.01243H108.414V10.1768H110.803V12.2417H108.414V16.5649H105.914Z" fill="#00FFFF"/>
<circle cx="56" cy="90" r="40" fill="#00FFFF"/>
<path d="M71.5 87.4019C73.5 88.5566 73.5 91.4434 71.5 92.5981L50.5 104.722C48.5 105.877 46 104.434 46 102.124L46 77.8756C46 75.5662 48.5 74.1229 50.5 75.2776L71.5 87.4019Z" fill="#212529"/>
</svg>
