<svg width="62" height="84" viewBox="0 0 62 84" fill="none" xmlns="http://www.w3.org/2000/svg">
<rect y="0.0996094" width="61.44" height="61.44" rx="30.72" fill="#00FFFF"/>
<path d="M39.5501 29.1224L37.3288 31.3437L36.4402 30.4552L38.6616 28.2338C40.052 26.8434 40.052 24.5892 38.6616 23.1988C37.2712 21.8084 35.0169 21.8084 33.6265 23.1988L29.9243 26.901C28.5339 28.2914 28.5339 30.5457 29.9243 31.9361C30.4778 32.4896 31.1682 32.8228 31.8866 32.9356L30.8546 33.9676C30.1902 33.7363 29.5665 33.3554 29.0357 32.8246C27.1546 30.9435 27.1546 27.8936 29.0357 26.0125L32.738 22.3103C34.6191 20.4291 37.669 20.4291 39.5501 22.3103C41.4312 24.1914 41.4312 27.2413 39.5501 29.1224Z" fill="#212529"/>
<path d="M22.3718 32.6765L24.5931 30.4552L25.4817 31.3437L23.2603 33.5651C21.8699 34.9555 21.8699 37.2097 23.2603 38.6001C24.6507 39.9905 26.905 39.9905 28.2954 38.6001L32.7381 34.1574C34.1284 32.767 34.1284 30.5128 32.738 29.1224C32.1845 28.5689 31.4941 28.2357 30.7757 28.1229L31.8078 27.0909C32.4721 27.3221 33.0959 27.7031 33.6266 28.2339C35.5077 30.115 35.5077 33.1649 33.6266 35.046L29.1839 39.4887C27.3028 41.3698 24.2529 41.3698 22.3718 39.4887C20.4907 37.6075 20.4907 34.5577 22.3718 32.6765Z" fill="#212529"/>
<path d="M18.7422 71.083V77.4932H17.8281V71.083H18.7422ZM10.668 72.5127V71.7393H15.4258V74.5986H11.582V76.0752C13.4453 76.0752 14.834 76.0225 16.5273 75.7471L16.6328 76.5088C14.8809 76.7959 13.457 76.8428 11.5352 76.8486H10.6914V73.8721H14.5117V72.5127H10.668ZM11.7695 79.5908C11.7637 78.3955 13.0938 77.7041 15.2852 77.7041C17.4766 77.7041 18.8125 78.3955 18.8125 79.5908C18.8125 80.7803 17.4766 81.4658 15.2852 81.4658C13.0938 81.4658 11.7637 80.7803 11.7695 79.5908ZM12.6719 79.5908C12.6777 80.3057 13.6621 80.7334 15.2852 80.7275C16.9023 80.7334 17.8926 80.3057 17.8867 79.5908C17.8926 78.876 16.9023 78.4424 15.2852 78.4424C13.6621 78.4424 12.6777 78.876 12.6719 79.5908ZM28.8203 72.1377V73.4268C28.8262 74.9619 28.8262 76.3799 28.3867 78.4893L27.4609 78.4072C27.6953 77.4053 27.8066 76.5381 27.8652 75.7295L21.5078 76.0752L21.3789 75.3135L27.9062 75.0439C27.9238 74.4932 27.9297 73.96 27.9297 73.4268V72.9111H21.6602V72.1377H28.8203ZM20.5117 80.0244V79.251H30.0039V80.0244H20.5117ZM40.375 76.4619V77.2236H30.8828V76.4619H35.1719V75.208H32.1484V71.3174H33.0625V72.5244H38.2188V71.3174H39.1328V75.208H36.0859V76.4619H40.375ZM31.9375 78.9932V78.2549H39.2031V81.4893H38.2773V78.9932H31.9375ZM33.0625 74.4697H38.2188V73.2275H33.0625V74.4697ZM44.7461 73.8721C44.7461 75.7061 45.959 77.5986 47.4414 78.3252L46.8789 79.0635C45.7305 78.4658 44.7695 77.2295 44.3066 75.7822C43.8438 77.3174 42.8594 78.6357 41.6875 79.2627L41.1016 78.5244C42.625 77.7744 43.832 75.7764 43.8438 73.8721V71.9736H44.7461V73.8721ZM48.4023 81.4893V71.0713H49.3164V75.3018H51.0625V76.0986H49.3164V81.4893H48.4023Z" fill="#E9ECEF"/>
</svg>
