<svg width="62" height="84" viewBox="0 0 62 84" fill="none" xmlns="http://www.w3.org/2000/svg">
<rect width="61.44" height="61.44" rx="30.72" fill="#ADB5BD"/>
<path d="M39.5501 29.0233L37.3288 31.2446L36.4402 30.3561L38.6616 28.1347C40.052 26.7443 40.052 24.4901 38.6616 23.0997C37.2712 21.7093 35.0169 21.7093 33.6265 23.0997L29.9243 26.8019C28.5339 28.1923 28.5339 30.4466 29.9243 31.837C30.4778 32.3905 31.1682 32.7236 31.8866 32.8364L30.8546 33.8685C30.1902 33.6372 29.5665 33.2562 29.0357 32.7255C27.1546 30.8444 27.1546 27.7945 29.0357 25.9134L32.738 22.2111C34.6191 20.33 37.669 20.33 39.5501 22.2111C41.4312 24.0922 41.4312 27.1421 39.5501 29.0233Z" fill="#212529"/>
<path d="M22.3718 32.5774L24.5931 30.3561L25.4817 31.2446L23.2603 33.466C21.8699 34.8563 21.8699 37.1106 23.2603 38.501C24.6507 39.8914 26.905 39.8914 28.2954 38.501L32.7381 34.0583C34.1284 32.6679 34.1284 30.4137 32.738 29.0233C32.1845 28.4697 31.4941 28.1366 30.7757 28.0238L31.8078 26.9917C32.4721 27.223 33.0959 27.604 33.6266 28.1347C35.5077 30.0158 35.5077 33.0657 33.6266 34.9469L29.1839 39.3895C27.3028 41.2707 24.2529 41.2707 22.3718 39.3895C20.4907 37.5084 20.4907 34.4585 22.3718 32.5774Z" fill="#212529"/>
<path d="M18.7422 70.9829V77.3931H17.8281V70.9829H18.7422ZM10.668 72.4126V71.6392H15.4258V74.4985H11.582V75.9751C13.4453 75.9751 14.834 75.9224 16.5273 75.647L16.6328 76.4087C14.8809 76.6958 13.457 76.7427 11.5352 76.7485H10.6914V73.772H14.5117V72.4126H10.668ZM11.7695 79.4907C11.7637 78.2954 13.0938 77.604 15.2852 77.604C17.4766 77.604 18.8125 78.2954 18.8125 79.4907C18.8125 80.6802 17.4766 81.3657 15.2852 81.3657C13.0938 81.3657 11.7637 80.6802 11.7695 79.4907ZM12.6719 79.4907C12.6777 80.2056 13.6621 80.6333 15.2852 80.6274C16.9023 80.6333 17.8926 80.2056 17.8867 79.4907C17.8926 78.7759 16.9023 78.3423 15.2852 78.3423C13.6621 78.3423 12.6777 78.7759 12.6719 79.4907ZM28.8203 72.0376V73.3267C28.8262 74.8618 28.8262 76.2798 28.3867 78.3892L27.4609 78.3071C27.6953 77.3052 27.8066 76.438 27.8652 75.6294L21.5078 75.9751L21.3789 75.2134L27.9062 74.9438C27.9238 74.3931 27.9297 73.8599 27.9297 73.3267V72.811H21.6602V72.0376H28.8203ZM20.5117 79.9243V79.1509H30.0039V79.9243H20.5117ZM40.375 76.3618V77.1235H30.8828V76.3618H35.1719V75.1079H32.1484V71.2173H33.0625V72.4243H38.2188V71.2173H39.1328V75.1079H36.0859V76.3618H40.375ZM31.9375 78.8931V78.1548H39.2031V81.3892H38.2773V78.8931H31.9375ZM33.0625 74.3696H38.2188V73.1274H33.0625V74.3696ZM44.7461 73.772C44.7461 75.606 45.959 77.4985 47.4414 78.2251L46.8789 78.9634C45.7305 78.3657 44.7695 77.1294 44.3066 75.6821C43.8438 77.2173 42.8594 78.5356 41.6875 79.1626L41.1016 78.4243C42.625 77.6743 43.832 75.6763 43.8438 73.772V71.8735H44.7461V73.772ZM48.4023 81.3892V70.9712H49.3164V75.2017H51.0625V75.9985H49.3164V81.3892H48.4023Z" fill="#F9FAFB"/>
</svg>
