<svg width="398" height="185" viewBox="0 0 398 185" fill="none" xmlns="http://www.w3.org/2000/svg">
<path d="M361.734 102.994C361.734 93.3677 369.465 85.1494 380.004 85.1494C390.543 85.1494 397.994 93.3615 397.994 102.994C397.994 112.627 390.263 120.839 380.004 120.839C369.745 120.839 361.734 112.627 361.734 102.994Z" fill="white"/>
<path d="M0.988281 119.828V1.25098H44.2309V86.1586H78.1625V119.828H0.988281Z" fill="white"/>
<path d="M259.551 119.831L298.417 59.3763H264.237V26.6992H357.207L321.203 86.1683H353.603V119.837H259.551V119.831Z" fill="white"/>
<path d="M254.232 59.3649V26.6879H233.513V0H190.27V42.959C190.27 56.3703 189.298 64.2518 184.424 72.715C183.154 74.6011 181.908 76.077 180.923 77.2773C173.387 86.4631 159.688 93.3219 145.837 93.2484C143.588 93.2361 135.638 92.2808 133.675 91.1234C139.127 89.8435 144.457 87.8594 149.483 85.2077C165.285 76.867 179.337 58.5382 172.864 38.0048C167.649 21.4642 150.431 10.8209 132.806 13.2582C131.05 13.5032 129.293 13.8706 127.591 14.3605C114.774 18.0348 103.184 27.6677 94.9665 41.4771C92.9791 44.8207 91.2774 48.3236 89.9099 51.8999C87.1993 50.1301 84.7925 48.3297 82.9935 46.6946L71.9565 36.6208L51.9609 58.8566L62.998 68.9304C68.9723 74.3868 77.9369 80.18 86.8103 84.5892C92.4808 108.57 117.746 121.553 139.99 121.988C140.385 121.994 140.78 122 141.181 122C158.545 122 179.015 117.242 193.328 103.604C199.357 118.473 213.499 122 228.475 122C240.545 122 248.294 120.91 254.238 119.82V88.0492C250.816 88.4105 248.47 88.5942 245.589 88.5942C240.186 88.5942 233.519 86.2365 233.519 76.6098V59.3649H254.238H254.232ZM116.184 64.8029C116.184 64.8029 119.289 53.0573 127.774 45.8434C136.258 38.6295 143.661 37.9375 146.852 42.3589C150.036 46.7803 147.101 53.6575 137.662 59.5609C128.23 65.4643 116.178 64.8029 116.178 64.8029H116.184Z" fill="white"/>
<path d="M104.022 163.254V168.664H100.155V170.471C102.069 170.441 103.495 170.344 105.175 170.031L105.409 171.984C103.378 172.375 101.62 172.424 98.9832 172.414H97.7527V166.848H101.639V165.207H97.7332V163.254H104.022ZM99.159 177.824C102.958 177.336 104.882 175.451 104.882 173.605V173.273H107.382V173.605C107.372 175.451 109.286 177.336 113.124 177.824L112.167 179.719C109.305 179.318 107.225 178.127 106.141 176.496C105.038 178.127 102.958 179.318 100.116 179.719L99.159 177.824ZM104.667 168.02V166.047H106.327V162.375H108.671V172.609H106.327V168.02H104.667ZM109.94 174.133V162.043H112.304V174.133H109.94ZM130.185 175.617V177.648H113.915V175.617H130.185ZM114.579 171.047C118.466 170.451 120.702 168.02 120.712 165.539V165.52H115.263V163.527H128.759V165.52H123.329V165.539C123.32 168.02 125.566 170.363 129.579 170.969L128.603 172.941C125.487 172.395 123.183 170.861 122.03 168.771C120.907 170.91 118.632 172.492 115.556 173.039L114.579 171.047ZM137.861 163.625V167.746H140.322V163.625H142.588V168.508H144.365V162.316H146.709V179.016H144.365V170.539H142.588V175.578H135.518V163.625H137.861ZM137.861 173.547H140.322V169.719H137.861V173.547ZM148.037 179.797V162.023H150.42V179.797H148.037ZM161.016 163.488V165.52H155.118V168.449H160.762V170.402H155.118V173.762C157.657 173.732 159.737 173.625 162.11 173.254L162.344 175.266C159.629 175.676 157.207 175.754 154.102 175.754H152.598V163.488H161.016ZM163.418 179.797V162.023H165.918V168.762H168.536V170.852H165.918V179.797H163.418ZM179.708 166.047C179.718 169.387 181.066 172.639 184.025 173.918L182.501 175.91C180.529 174.953 179.2 173.176 178.458 170.979C177.696 173.312 176.329 175.227 174.298 176.223L172.736 174.191C175.782 172.814 177.169 169.387 177.189 166.047V163.391H179.708V166.047ZM182.032 169.621V167.609H185.529V162.023H187.989V179.836H185.529V169.621H182.032ZM204.757 162.023V179.836H202.238V162.023H204.757ZM190.754 175.676V163.43H193.254V167.766H197.082V163.43H199.543V175.676H190.754ZM193.254 173.664H197.082V169.699H193.254V173.664ZM216.115 164.367C216.105 166.975 218.42 169.758 222.443 170.441L221.35 172.512C218.244 171.896 215.949 170.148 214.797 167.873C213.625 170.129 211.32 171.887 208.244 172.512L207.17 170.441C211.125 169.738 213.439 166.945 213.459 164.367V163.078H216.115V164.367ZM206.76 177.609V175.559H223.029V177.609H206.76ZM235.96 162.941C239.778 162.941 242.649 164.875 242.659 167.805C242.649 170.49 240.384 172.287 237.19 172.639V175.676H244.124V177.727H227.854V175.676H234.71V172.639C231.536 172.277 229.28 170.48 229.28 167.805C229.28 164.875 232.141 162.941 235.96 162.941ZM231.741 167.805C231.741 169.68 233.47 170.725 235.96 170.734C238.46 170.725 240.188 169.68 240.198 167.805C240.188 166.027 238.46 164.924 235.96 164.934C233.47 164.924 231.741 166.027 231.741 167.805ZM259.505 162.766V164.719H257.181V167.805H259.388V169.777H246.282V167.805H248.47V164.719H246.165V162.766H259.505ZM244.739 173.156V171.203H260.95V173.156H244.739ZM246.693 179.484V174.367H249.193V177.492H259.114V179.484H246.693ZM250.97 167.805H254.681V164.719H250.97V167.805Z" fill="white"/>
</svg>
