<svg width="62" height="84" viewBox="0 0 62 84" fill="none" xmlns="http://www.w3.org/2000/svg">
<rect x="0.558594" width="61.44" height="61.44" rx="30.72" fill="#ADB5BD"/>
<path fill-rule="evenodd" clip-rule="evenodd" d="M31.2773 21.8456C25.8398 21.8456 21.4023 25.3456 21.4023 29.7206C21.4023 32.4706 23.2148 34.9081 25.9023 36.3456L25.1523 40.2206L29.4023 37.4081L31.2773 37.5331C36.7148 37.5331 41.1523 34.0331 41.1523 29.6581C41.1523 25.2831 36.7148 21.7831 31.2773 21.8456Z" fill="#212529"/>
<mask id="mask0_6522_17558" style="mask-type:luminance" maskUnits="userSpaceOnUse" x="21" y="21" width="21" height="20">
<path fill-rule="evenodd" clip-rule="evenodd" d="M31.2773 21.8456C25.8398 21.8456 21.4023 25.3456 21.4023 29.7206C21.4023 32.4706 23.2148 34.9081 25.9023 36.3456L25.1523 40.2206L29.4023 37.4081L31.2773 37.5331C36.7148 37.5331 41.1523 34.0331 41.1523 29.6581C41.1523 25.2831 36.7148 21.7831 31.2773 21.8456Z" fill="white"/>
</mask>
<g mask="url(#mask0_6522_17558)">
</g>
<path d="M16.1016 72.061C16.0957 75.0669 15.0703 77.8208 11.3203 79.6665L10.8047 78.9634C12.7617 78.0083 13.9395 76.8013 14.5723 75.4009L11.0039 75.7407L10.8516 74.9321L14.8535 74.6626C15.041 74.0767 15.1465 73.4614 15.1875 72.8228H11.3789V72.061H16.1016ZM17.8477 81.3892V70.9712H18.7617V75.2134H20.4492V75.9868H18.7617V81.3892H17.8477ZM26.4727 72.061C26.4668 75.0669 25.4414 77.8208 21.6914 79.6665L21.1758 78.9634C23.1328 78.0083 24.3105 76.8013 24.9434 75.4009L21.375 75.7407L21.2227 74.9321L25.2246 74.6626C25.4121 74.0767 25.5176 73.4614 25.5586 72.8228H21.75V72.061H26.4727ZM28.2188 81.3892V70.9712H29.1328V75.2134H30.8203V75.9868H29.1328V81.3892H28.2188ZM36.1875 71.6509C38.4023 71.6626 39.9961 72.7407 39.9961 74.3813C39.9961 75.9341 38.6133 76.9595 36.6328 77.0942V79.2798H40.9805V80.0532H31.4414V79.2798H35.7305V77.0942C33.7617 76.9536 32.3789 75.9282 32.3789 74.3813C32.3789 72.7407 33.9785 71.6626 36.1875 71.6509ZM33.2695 74.3813C33.2637 75.5825 34.5 76.3618 36.1875 76.3735C37.875 76.3618 39.1055 75.5825 39.1055 74.3813C39.1055 73.2036 37.875 72.4067 36.1875 72.4126C34.5 72.4067 33.2637 73.2036 33.2695 74.3813ZM51.3047 76.5962V77.3462H41.8008V76.5962H46.0898V75.4829H43.0664V71.2524H50.1211V71.9907H43.9922V72.9868H49.8398V73.7017H43.9922V74.7681H50.1797V75.4829H47.0039V76.5962H51.3047ZM42.8672 79.022V78.272H50.0742V81.3892H49.1367V79.022H42.8672Z" fill="#F9FAFB"/>
</svg>
