<svg width="62" height="84" viewBox="0 0 62 84" fill="none" xmlns="http://www.w3.org/2000/svg">
<rect x="0.558594" y="0.0996094" width="61.44" height="61.44" rx="30.72" fill="#FFEF6A"/>
<path fill-rule="evenodd" clip-rule="evenodd" d="M31.2773 21.9442C25.8398 21.9442 21.4023 25.4442 21.4023 29.8192C21.4023 32.5692 23.2148 35.0067 25.9023 36.4442L25.1523 40.3192L29.4023 37.5067L31.2773 37.6317C36.7148 37.6317 41.1523 34.1317 41.1523 29.7567C41.1523 25.3817 36.7148 21.8817 31.2773 21.9442Z" fill="#212529"/>
<mask id="mask0_7830_3774" style="mask-type:luminance" maskUnits="userSpaceOnUse" x="21" y="21" width="21" height="20">
<path fill-rule="evenodd" clip-rule="evenodd" d="M31.2773 21.9442C25.8398 21.9442 21.4023 25.4442 21.4023 29.8192C21.4023 32.5692 23.2148 35.0067 25.9023 36.4442L25.1523 40.3192L29.4023 37.5067L31.2773 37.6317C36.7148 37.6317 41.1523 34.1317 41.1523 29.7567C41.1523 25.3817 36.7148 21.8817 31.2773 21.9442Z" fill="white"/>
</mask>
<g mask="url(#mask0_7830_3774)">
</g>
<path d="M16.1016 72.1611C16.0957 75.167 15.0703 77.9209 11.3203 79.7666L10.8047 79.0635C12.7617 78.1084 13.9395 76.9014 14.5723 75.501L11.0039 75.8408L10.8516 75.0322L14.8535 74.7627C15.041 74.1768 15.1465 73.5615 15.1875 72.9229H11.3789V72.1611H16.1016ZM17.8477 81.4893V71.0713H18.7617V75.3135H20.4492V76.0869H18.7617V81.4893H17.8477ZM26.4727 72.1611C26.4668 75.167 25.4414 77.9209 21.6914 79.7666L21.1758 79.0635C23.1328 78.1084 24.3105 76.9014 24.9434 75.501L21.375 75.8408L21.2227 75.0322L25.2246 74.7627C25.4121 74.1768 25.5176 73.5615 25.5586 72.9229H21.75V72.1611H26.4727ZM28.2188 81.4893V71.0713H29.1328V75.3135H30.8203V76.0869H29.1328V81.4893H28.2188ZM36.1875 71.751C38.4023 71.7627 39.9961 72.8408 39.9961 74.4814C39.9961 76.0342 38.6133 77.0596 36.6328 77.1943V79.3799H40.9805V80.1533H31.4414V79.3799H35.7305V77.1943C33.7617 77.0537 32.3789 76.0283 32.3789 74.4814C32.3789 72.8408 33.9785 71.7627 36.1875 71.751ZM33.2695 74.4814C33.2637 75.6826 34.5 76.4619 36.1875 76.4736C37.875 76.4619 39.1055 75.6826 39.1055 74.4814C39.1055 73.3037 37.875 72.5068 36.1875 72.5127C34.5 72.5068 33.2637 73.3037 33.2695 74.4814ZM51.3047 76.6963V77.4463H41.8008V76.6963H46.0898V75.583H43.0664V71.3525H50.1211V72.0908H43.9922V73.0869H49.8398V73.8018H43.9922V74.8682H50.1797V75.583H47.0039V76.6963H51.3047ZM42.8672 79.1221V78.3721H50.0742V81.4893H49.1367V79.1221H42.8672Z" fill="#E9ECEF"/>
</svg>
